# xmcd
#
# Track frame offsets:
#	150
#	11670
#	22820
#	36692
#	45653
#	57380
#	70295
#	82362
#	95894
#	107685
#	121859
#	133071
#	149512
#	166166
#	177950
#	190796
#	200788
#	210466
#	222243
#	233339
#	243244
#	260359
#	272697
#	284761
#	294121
#	306510
#	318080
#	329350
#
# Disc length: 4576 seconds
# Revision: 3
# Processed by: cddbd v1.5.2PL0 Copyright (c) Steve Scherf et al.
# Submitted via: dBpowerAMP V12.0
#
DISCID=ac11de1c
DTITLE=Various Artist - The Sun Blues Box 9 - Out Takes
DYEAR=2013
DGENRE=Blues
TTITLE0=Handy Jackson - (Have You Ever Had) Trouble
TTITLE1=Billy Love - You're Gonna Cry
TTITLE2=Sleepy John Estes - Runnin' Around
TTITLE3=Elven Parr and His in the Groove Boys - Skin and Bones Woman
TTITLE4=Walter Horton - Little Walter's Boogie
TTITLE5=Henry Hill/Doctor Ross - That Ain't Right
TTITLE6=Joe Hill Louis - She May Be Yours (But She Comes to See Me Sometime)
TTITLE7=David Honeyboy Edwards - Sweet Home Chicago
TTITLE8=Little Walker - Off the Wall
TTITLE9=Boyd Gilmore - Believe I'll Settle Down
TTITLE10=Johnny O'Neal - Ugly Woman
TTITLE11=Johnny O'Neal - Dead Letter Blues
TTITLE12=Johnny O'Neal - Johnny's Dream
TTITLE13=Hot Shot Love - Wolf Call Boogie
TTITLE14=Billy Love - Way After Midnight
TTITLE15=Billy Love - Gee I Wish
TTITLE16=Billy Love - The News Is All Around Town
TTITLE17=Little Milton - Rode That Train/Lookin' for My Baby
TTITLE18=Willie Johnson Combo/Sammy Lewis - I Feel So Worried
TTITLE19=Willie Johnson Combo/Sammy Lewis - So Long Baby Goodbye
TTITLE20=Doctor Ross - Left Job Boogie
TTITLE21=Charlie Booker - Walked All Night
TTITLE22=Charlie Booker - Baby I'm Coming Home
TTITLE23=Tommy Hodge/Ike Turner - (I Know) You Don't Love Me
TTITLE24=Tommy Hodge/Ike Turner - Down and Out (aka How Long Will It Last)
TTITLE25=Tommy Hodge/Ike Turner - You Ain't the One
TTITLE26=Tommy Hodge/Ike Turner - Matchbox (aka I'm Gonna Forget About You)
TTITLE27=Pat Hare - Cheating and Lying Blues
EXTD=
EXTT0=
EXTT1=
EXTT2=
EXTT3=
EXTT4=
EXTT5=
EXTT6=
EXTT7=
EXTT8=
EXTT9=
EXTT10=
EXTT11=
EXTT12=
EXTT13=
EXTT14=
EXTT15=
EXTT16=
EXTT17=
EXTT18=
EXTT19=
EXTT20=
EXTT21=
EXTT22=
EXTT23=
EXTT24=
EXTT25=
EXTT26=
EXTT27=
PLAYORDER=
